<svg width="48" height="48" viewBox="0 0 48 48" fill="none" xmlns="http://www.w3.org/2000/svg">
<g id="Group 37">
<rect id="Rectangle 39" x="0.761719" y="0.527344" width="46.63" height="46.5572" rx="20" fill="white"/>
<path id="Vector" d="M29.2008 12.0938H16.2029C15.3093 12.0938 14.5862 12.9342 14.5862 13.9614L14.5781 25.1674C14.5781 26.1946 15.3093 27.0351 16.2029 27.0351H22.7018V25.1674H16.2029V15.8291L22.7018 20.4983L29.2008 15.8291V20.4983H30.8255V13.9614C30.8255 12.9342 30.0944 12.0938 29.2008 12.0938ZM22.7018 18.6306L16.2029 13.9614H29.2008L22.7018 18.6306ZM27.0399 28.9028L24.1641 25.597L25.3095 24.2803L27.0317 26.26L30.4762 22.3005L31.6379 23.6173L27.0399 28.9028Z" fill="black" fill-opacity="0.5"/>
</g>
</svg>
