<svg width="18" height="18" viewBox="0 0 18 18" fill="none" xmlns="http://www.w3.org/2000/svg">
<g id="Component 1">
<path id="Vector" d="M15.7948 17.9568H15.6851C3.00333 17.2095 1.20271 6.24432 0.951008 2.89788C0.911669 2.37326 1.0773 1.85412 1.41146 1.45463C1.74563 1.05515 2.22097 0.808043 2.73291 0.767672C2.78411 0.763703 2.83553 0.761719 2.88716 0.761719H6.28833C6.54685 0.761463 6.79948 0.840757 7.01351 0.989331C7.22754 1.1379 7.3931 1.34891 7.48875 1.59502L8.46973 4.06847C8.56418 4.3089 8.58762 4.57247 8.53714 4.82644C8.48665 5.08041 8.36447 5.31358 8.18576 5.49699L6.8111 6.9189C7.02495 8.16973 7.60904 9.32289 8.48415 10.222C9.35926 11.1211 10.483 11.7227 11.7031 11.9452L13.1036 10.5233C13.2853 10.3422 13.5149 10.2199 13.764 10.1716C14.0131 10.1234 14.2704 10.1514 14.5041 10.2521L16.9372 11.2507C17.1737 11.3519 17.3755 11.5228 17.5169 11.7419C17.6583 11.961 17.7328 12.2182 17.731 12.4809V15.9728C17.731 16.499 17.527 17.0036 17.1639 17.3757C16.8008 17.7478 16.3083 17.9568 15.7948 17.9568ZM2.88716 2.08442C2.80241 2.08416 2.71843 2.10101 2.64003 2.134C2.56164 2.167 2.49035 2.21549 2.43024 2.27672C2.37013 2.33795 2.32238 2.41071 2.28971 2.49085C2.25704 2.57099 2.24009 2.65694 2.23984 2.74379C2.23984 2.76231 2.24049 2.7806 2.24178 2.79868C2.53865 6.71388 4.44254 15.9728 15.7561 16.6341C15.9269 16.6446 16.0948 16.5852 16.2229 16.4688C16.3509 16.3525 16.4286 16.1888 16.4389 16.0138L16.4402 15.9728V12.4809L14.0071 11.4822L12.1549 13.3671L11.8451 13.3274C6.23025 12.6065 5.4687 6.85276 5.4687 6.79324L5.42997 6.47579L7.26286 4.57771L6.29479 2.08442H2.88716Z" fill="black" fill-opacity="0.7"/>
<path id="Vector_2" d="M14.3757 6.4003H13.2567C13.2563 5.95943 13.0793 5.53673 12.7646 5.22499C12.4499 4.91324 12.0232 4.73791 11.5781 4.73747V3.62891C12.3198 3.62979 13.0309 3.92205 13.5554 4.4416C14.0798 4.96115 14.3749 5.66555 14.3757 6.4003Z" fill="black"/>
<path id="Vector_3" d="M17.1724 5.75066H16.0534C16.0522 4.7219 15.6392 3.73562 14.9049 3.00818C14.1707 2.28074 13.1751 1.87155 12.1367 1.87037V0.761719C13.4718 0.763186 14.7518 1.28928 15.6959 2.22456C16.6399 3.15985 17.171 4.42796 17.1724 5.75066Z" fill="black"/>
</g>
</svg>
