<svg width="22" height="19" viewBox="0 0 22 19" fill="none" xmlns="http://www.w3.org/2000/svg">
<g clip-path="url(#clip0_2393_3684)">
<mask id="mask0_2393_3684" style="mask-type:luminance" maskUnits="userSpaceOnUse" x="0" y="0" width="22" height="19">
<path d="M0.796875 0.335938H21.7969V18.3359H0.796875V0.335938Z" fill="white"/>
</mask>
<g mask="url(#mask0_2393_3684)">
<path d="M9.10938 8.21094L11.7344 4.83594V7.08594H13.4844L10.8594 10.4609V8.21094H9.10938Z" fill="#0C0A74"/>
<path fill-rule="evenodd" clip-rule="evenodd" d="M21.7969 0.335938H0.796875V18.3359H21.7969V0.335938ZM8.23438 13.0859C8.00688 12.2677 6.93587 10.6338 6.515 10.1928C5.79595 9.44051 5.34351 8.52734 5.21125 7.56144C5.08086 6.5976 5.2771 5.62196 5.7765 4.75119C6.2806 3.87377 7.06418 3.1366 8.03662 2.62494C9.01751 2.10828 10.1465 1.83514 11.2978 1.83594C12.4519 1.83594 13.5824 2.10969 14.5589 2.62606C15.5311 3.13792 16.3144 3.87522 16.8181 4.75269C17.3173 5.62365 17.5132 6.59942 17.3825 7.56331C17.2497 8.52907 16.7968 9.44199 16.0774 10.1939C15.6566 10.6346 14.5869 12.2684 14.3594 13.0859H8.23438ZM8.23438 14.2109C8.23438 14.1115 8.28047 14.0161 8.36252 13.9458C8.44456 13.8754 8.55584 13.8359 8.67188 13.8359H13.9219C14.0379 13.8359 14.1492 13.8754 14.2312 13.9458C14.3133 14.0161 14.3594 14.1115 14.3594 14.2109C14.3594 14.3104 14.3133 14.4058 14.2312 14.4761C14.1492 14.5464 14.0379 14.5859 13.9219 14.5859H8.67188C8.55584 14.5859 8.44456 14.5464 8.36252 14.4761C8.28047 14.4058 8.23438 14.3104 8.23438 14.2109ZM14.3594 15.3359H8.23438V16.0859C8.23438 16.2849 8.32656 16.4756 8.49066 16.6163C8.65475 16.7569 8.87731 16.8359 9.10938 16.8359H13.4844C13.7164 16.8359 13.939 16.7569 14.1031 16.6163C14.2672 16.4756 14.3594 16.2849 14.3594 16.0859V15.3359Z" fill="#0C0A74"/>
</g>
</g>
<defs>
<clipPath id="clip0_2393_3684">
<rect width="21" height="18" fill="white" transform="translate(0.796875 0.335938)"/>
</clipPath>
</defs>
</svg>
