<svg width="18" height="18" viewBox="0 0 18 18" fill="none" xmlns="http://www.w3.org/2000/svg">
<path d="M5.2673 0.5H12.76C15.6144 0.5 17.9336 2.69077 17.9336 5.3871V12.465C17.9336 13.7611 17.3885 15.0042 16.4183 15.9207C15.4481 16.8372 14.1322 17.3521 12.76 17.3521H5.2673C2.41293 17.3521 0.09375 15.1613 0.09375 12.465V5.3871C0.09375 4.09096 0.63882 2.84791 1.60905 1.9314C2.57928 1.01489 3.89519 0.5 5.2673 0.5ZM5.08891 2.18521C4.23725 2.18521 3.42048 2.50479 2.81826 3.07366C2.21605 3.64253 1.87773 4.41408 1.87773 5.21858V12.6335C1.87773 14.3103 3.31384 15.6669 5.08891 15.6669H12.9384C13.7901 15.6669 14.6069 15.3473 15.2091 14.7784C15.8113 14.2095 16.1496 13.438 16.1496 12.6335V5.21858C16.1496 3.5418 14.7135 2.18521 12.9384 2.18521H5.08891ZM13.6966 3.44911C13.9923 3.44911 14.2759 3.56008 14.485 3.75761C14.6942 3.95513 14.8116 4.22303 14.8116 4.50237C14.8116 4.78171 14.6942 5.04961 14.485 5.24713C14.2759 5.44466 13.9923 5.55562 13.6966 5.55562C13.4009 5.55562 13.1173 5.44466 12.9082 5.24713C12.6991 5.04961 12.5816 4.78171 12.5816 4.50237C12.5816 4.22303 12.6991 3.95513 12.9082 3.75761C13.1173 3.56008 13.4009 3.44911 13.6966 3.44911ZM9.01367 4.71302C10.1965 4.71302 11.3309 5.15689 12.1673 5.94698C13.0037 6.73708 13.4736 7.80868 13.4736 8.92604C13.4736 10.0434 13.0037 11.115 12.1673 11.9051C11.3309 12.6952 10.1965 13.1391 9.01367 13.1391C7.83082 13.1391 6.69641 12.6952 5.86 11.9051C5.0236 11.115 4.55371 10.0434 4.55371 8.92604C4.55371 7.80868 5.0236 6.73708 5.86 5.94698C6.69641 5.15689 7.83082 4.71302 9.01367 4.71302ZM9.01367 6.39823C8.30396 6.39823 7.62331 6.66455 7.12147 7.13861C6.61963 7.61266 6.3377 8.25562 6.3377 8.92604C6.3377 9.59646 6.61963 10.2394 7.12147 10.7135C7.62331 11.1875 8.30396 11.4539 9.01367 11.4539C9.72338 11.4539 10.404 11.1875 10.9059 10.7135C11.4077 10.2394 11.6896 9.59646 11.6896 8.92604C11.6896 8.25562 11.4077 7.61266 10.9059 7.13861C10.404 6.66455 9.72338 6.39823 9.01367 6.39823Z" fill="#EEEEEE"/>
</svg>
