<svg width="40" height="38" viewBox="0 0 40 38" fill="none" xmlns="http://www.w3.org/2000/svg">
<path d="M19.9062 9.0332C21.777 9.0332 23.5711 9.51483 24.8939 10.3721C26.2167 11.2294 26.9598 12.3922 26.9598 13.6046C26.9598 14.2049 26.7774 14.7994 26.4229 15.354C26.0684 15.9086 25.5489 16.4126 24.8939 16.8371C24.2389 17.2616 23.4613 17.5983 22.6055 17.828C21.7498 18.0578 20.8325 18.176 19.9062 18.176C18.0355 18.176 16.2414 17.6944 14.9186 16.8371C13.5958 15.9798 12.8527 14.817 12.8527 13.6046C12.8527 12.3922 13.5958 11.2294 14.9186 10.3721C16.2414 9.51483 18.0355 9.0332 19.9062 9.0332ZM19.9062 0.804688C25.1443 0.804688 30.1678 2.15325 33.8716 4.55369C37.5755 6.95414 39.6562 10.2099 39.6562 13.6046C39.6562 23.2045 19.9062 37.3759 19.9062 37.3759C19.9062 37.3759 0.15625 23.2045 0.15625 13.6046C0.15625 10.2099 2.23705 6.95414 5.94089 4.55369C9.64473 2.15325 14.6682 0.804688 19.9062 0.804688ZM19.9062 4.46181C16.1648 4.46181 12.5766 5.42506 9.93099 7.13967C7.28539 8.85427 5.79911 11.1798 5.79911 13.6046C5.79911 15.4332 5.79911 19.0903 19.9062 31.3599C34.0134 19.0903 34.0134 15.4332 34.0134 13.6046C34.0134 11.1798 32.5271 8.85427 29.8815 7.13967C27.2359 5.42506 23.6477 4.46181 19.9062 4.46181Z" fill="#070303"/>
</svg>
