<svg width="45" height="33" viewBox="0 0 45 33" fill="none" xmlns="http://www.w3.org/2000/svg">
<path d="M38.362 0.632812H7.44531C5.68825 0.632812 4.00316 1.25987 2.76073 2.37603C1.5183 3.49219 0.820313 5.00603 0.820312 6.58452V26.4235C0.820313 28.002 1.5183 29.5159 2.76073 30.632C4.00316 31.7482 5.68825 32.3752 7.44531 32.3752H38.362C40.119 32.3752 41.8041 31.7482 43.0466 30.632C44.289 29.5159 44.987 28.002 44.987 26.4235V6.58452C44.987 5.00603 44.289 3.49219 43.0466 2.37603C41.8041 1.25987 40.119 0.632813 38.362 0.632812ZM36.8824 4.60062L22.9036 14.0241L8.9249 4.60062H36.8824ZM38.362 28.4074H7.44531C6.85963 28.4074 6.29793 28.1984 5.88379 27.8264C5.46964 27.4543 5.23698 26.9497 5.23698 26.4235V7.08049L21.5786 18.0911C21.9609 18.3487 22.4258 18.4879 22.9036 18.4879C23.3815 18.4879 23.8464 18.3487 24.2286 18.0911L40.5703 7.08049V26.4235C40.5703 26.9497 40.3377 27.4543 39.9235 27.8264C39.5094 28.1984 38.9477 28.4074 38.362 28.4074Z" fill="black"/>
</svg>
