<svg width="17" height="21" viewBox="0 0 17 21" fill="none" xmlns="http://www.w3.org/2000/svg">
<path d="M16.3479 6.45192C16.3479 6.21454 16.181 6.00988 15.9485 5.96214C15.0651 5.78077 14.2331 5.26761 13.5756 4.47127C12.9173 3.67397 12.4717 2.63716 12.3127 1.50102C12.2782 1.25405 12.0669 1.07031 11.8176 1.07031H8.47084C8.19469 1.07031 7.97084 1.29417 7.97084 1.57031V12.9875C7.97084 13.3414 7.89596 13.6858 7.75726 13.9871C7.61855 14.2885 7.42359 14.5307 7.19934 14.6986C6.97609 14.8657 6.73066 14.9545 6.48655 14.9678C6.24273 14.9811 5.99473 14.9194 5.76423 14.7798C5.53249 14.6395 5.32321 14.4228 5.16437 14.1407C5.00548 13.8585 4.90557 13.5255 4.87936 13.1733C4.85314 12.8212 4.90202 12.4687 5.01878 12.1509C5.13557 11.833 5.31385 11.5669 5.52833 11.372C5.63265 11.2773 5.69213 11.1429 5.69213 11.0019V6.70707C5.69213 6.55005 5.61837 6.40215 5.49294 6.30768C5.36752 6.21321 5.205 6.18315 5.05408 6.22651C3.97233 6.53726 2.99901 7.20665 2.23868 8.14127C1.47884 9.07528 0.958596 10.2403 0.728137 11.4998C0.497651 12.7594 0.564468 14.0721 0.922237 15.2901C1.27996 16.5079 1.917 17.591 2.77112 18.4091C3.62619 19.228 4.66626 19.7493 5.7754 19.8966C6.88551 20.0439 8.00269 19.8081 8.99555 19.2261L8.74269 18.7948L8.99555 19.2261C9.98657 18.6452 10.809 17.7462 11.3794 16.6446C11.9497 15.5431 12.2493 14.276 12.2495 12.9876V12.9875V9.56369C13.3229 10.3235 14.529 10.802 15.7883 10.9533C15.9302 10.9704 16.0727 10.9258 16.1797 10.8309C16.2867 10.736 16.3479 10.5999 16.3479 10.4569V6.45192Z" stroke="white" stroke-linecap="round" stroke-linejoin="round"/>
</svg>
