<svg width="20" height="19" viewBox="0 0 20 19" fill="none" xmlns="http://www.w3.org/2000/svg">
<path d="M1.09375 15.3223C1.99936 15.8512 8.55409 19.8401 13.2155 16.7657C17.8763 13.6912 17.6191 8.3942 17.6191 5.96653C18.0416 5.03273 18.9336 4.55791 18.9336 2.03011C18.0576 2.88461 17.1867 3.17505 16.321 2.90245C15.4731 1.53744 14.3065 0.93325 12.8206 1.09086C10.5925 1.32729 9.77753 3.63501 10.0174 6.62128C6.58185 8.45517 3.88803 5.29146 2.49934 2.90245C2.03551 4.78392 1.58857 7.04307 2.49934 9.54162C3.10684 11.208 4.56736 12.6161 6.87996 13.7675C4.5359 15.1082 2.60732 15.6272 1.09375 15.3223Z" stroke="white" stroke-linejoin="round"/>
</svg>
