<svg width="18" height="15" viewBox="0 0 18 15" fill="none" xmlns="http://www.w3.org/2000/svg">
<path d="M15.7983 3.36474C15.7305 3.11157 15.5378 2.92042 15.3175 2.8618C14.9268 2.7573 13.0279 2.51943 9.01412 2.51943C5.00035 2.51943 3.10229 2.7573 2.70894 2.8618C2.49131 2.91957 2.29864 3.11072 2.22996 3.36474C2.13274 3.72495 1.87854 5.23376 1.87854 7.61677C1.87854 9.99893 2.13274 11.5077 2.22996 11.8697C2.29775 12.122 2.49041 12.3131 2.70983 12.3709C3.10229 12.4762 4.99946 12.7141 9.01323 12.7141C13.027 12.7141 14.9259 12.4762 15.3184 12.3717C15.536 12.314 15.7287 12.1228 15.7974 11.8688C15.8955 11.5086 16.1488 9.99553 16.1488 7.61677C16.1488 5.23801 15.8955 3.7258 15.7983 3.36474ZM17.526 2.94251C17.9336 4.45642 17.9336 7.61677 17.9336 7.61677C17.9336 7.61677 17.9336 10.7771 17.526 12.291C17.2994 13.1278 16.6367 13.7863 15.7974 14.0088C14.273 14.4132 9.01323 14.4132 9.01323 14.4132C9.01323 14.4132 3.75698 14.4132 2.22996 14.0088C1.38707 13.7829 0.725249 13.1253 0.50137 12.291C0.09375 10.7771 0.09375 7.61677 0.09375 7.61677C0.09375 7.61677 0.09375 4.45642 0.50137 2.94251C0.727925 2.10569 1.39064 1.44729 2.22996 1.2247C3.75787 0.820312 9.01412 0.820312 9.01412 0.820312C9.01412 0.820312 14.273 0.820312 15.7974 1.2247C16.6394 1.45068 17.3021 2.10824 17.526 2.94251ZM7.23022 10.5902V4.64332L12.5819 7.61677L7.23022 10.5902Z" fill="#FFFEFE"/>
</svg>
